{"title":"Best Laid Plans 2012 DVDRip XViD-DTRG","uid":7048676,"size":1484739422,"categoryP":"video","categoryS":"movies","magnet":"?xt=urn:btih:2f109b22ac0920c02d13cac3b467b0932a0ac335&amp;dn=Best+Laid+Plans+2012+DVDRip+XViD-DTRG&amp;tr=udp%3A%2F%2Ftracker.openbittorrent.com%3A80&amp;tr=udp%3A%2F%2Fopen.demonii.com%3A1337&amp;tr=udp%3A%2F%2Ftracker.coppersurfer.tk%3A6969&amp;tr=udp%3A%2F%2Fexodus.desync.com%3A6969","seeders":0,"leechers":0,"uploader":"MScope40","files":3,"time":1329829944,"description":"Best Laid Plans 2012 DVDRip XViD-DTRG\n\nFormat : AVI\nFormat/Info : Audio Video Interleave\nFile size : 1.37 GiB\nDuration : 1h 43mn\nOverall bit rate : 1 893 Kbps\nWriting application : VirtualDubMod 1.5.10.2 (build 2540/release)\nWriting library : VirtualDubMod build 2540/release\n\nVideo\nID : 0\nFormat : MPEG-4 Visual\nFormat profile : Advanced Simple@L5\nFormat settings, BVOP : 2\nFormat settings, QPel : No\nFormat settings, GMC : No warppoints\nFormat settings, Matrix : Default (H.263)\nMuxing mode : Packed bitstream\nCodec ID : XVID\nCodec ID/Hint : XviD\nDuration : 1h 43mn\nBit rate : 1 436 Kbps\nWidth : 720 pixels\nHeight : 304 pixels\nDisplay aspect ratio : 2.35:1\nFrame rate : 25.000 fps\nColor space : YUV\nChroma subsampling : 4:2:0\nBit depth : 8 bits\nScan type : Progressive\nCompression mode : Lossy\nBits/(Pixel*Frame) : 0.262\nStream size : 1.04 GiB (76%)\nWriting library : XviD 64\n\nAudio\nID : 1\nFormat : AC-3\nFormat/Info : Audio Coding 3\nMode extension : CM (complete main)\nCodec ID : 2000\nDuration : 1h 43mn\nBit rate mode : Constant\nBit rate : 448 Kbps\nChannel(s) : 6 channels\nChannel positions : Front: L C R, Side: L R, LFE\nSampling rate : 48.0 KHz\nBit depth : 16 bits\nCompression mode : Lossy\nStream size : 332 MiB (24%)\nAlignment : Aligned on interleaves\nInterleave, duration : 40 ms (1.00 video frame)\nInterleave, preload duration : 512 ms\n &lt;a href=&quot;\nhttp://www.imdb.com/title/tt1764198/&quot; rel=&quot;nofollow&quot; target=&quot;_NEW&quot;&gt;\nhttp://www.imdb.com/title/tt1764198/&lt;/a&gt;\n\nStoryline\n\nDavid Blair directs this powerful British Drama, loosely inspired by John Steinbeck's novel 'Of Mice and Men'. Set in Nottingham, the film revolves around the relationship between the thuggish Danny (Stephen Graham) and Joseph (Adewale Akinnuoye-Agbaje), a giant of a man with a mental age of seven. When Danny finds himself in debt to a local crime boss, he feels he is left with no choice but to manipulate Joseph into participating in a series of underground cage fights from which Danny can pay his debts.\n\nSource Used\n\nLegend PAL DVDR ........Thanks guys\n\nEnjoy\n\nGreetz to EMBER,ETRG,BHRG,CreWSaDe,RemixHD,LEGiTiMATE,INSPiRAL,EXQUiSiTE,LEGiON,Xtreme Encode .......and maybe many more\n &lt;a href=&quot;\nhttp://img29.imageshack.us/img29/1636/18259073.jpg&quot; rel=&quot;nofollow&quot; target=&quot;_NEW&quot;&gt;\nhttp://img29.imageshack.us/img29/1636/18259073.jpg&lt;/a&gt;\n &lt;a href=&quot;\nhttp://img812.imageshack.us/img812/5822/31801346.jpg&quot; rel=&quot;nofollow&quot; target=&quot;_NEW&quot;&gt;\nhttp://img812.imageshack.us/img812/5822/31801346.jpg&lt;/a&gt;\n &lt;a href=&quot;\nhttp://img641.imageshack.us/img641/263/81417630.jpg&quot; rel=&quot;nofollow&quot; target=&quot;_NEW&quot;&gt;\nhttp://img641.imageshack.us/img641/263/81417630.jpg&lt;/a&gt;","torrent":{"xt":"urn:btih:2f109b22ac0920c02d13cac3b467b0932a0ac335","amp;dn":"Best+Laid+Plans+2012+DVDRip+XViD-DTRG","amp;tr":["udp%3A%2F%2Ftracker.openbittorrent.com%3A80","udp%3A%2F%2Fopen.demonii.com%3A1337","udp%3A%2F%2Ftracker.coppersurfer.tk%3A6969","udp%3A%2F%2Fexodus.desync.com%3A6969"],"infoHash":"2f109b22ac0920c02d13cac3b467b0932a0ac335","infoHashBuffer":{"type":"Buffer","data":[47,16,155,34,172,9,32,192,45,19,202,195,180,103,176,147,42,10,195,53]},"announce":[],"urlList":[]}}